<svg width="105" height="80" viewBox="0 0 105 80" fill="none" xmlns="http://www.w3.org/2000/svg">
<path d="M56.0725 -0.00244141L53.0295 5.47956L31.2676 44.6329L24.8746 38.3055L22.6723 41.9315L3.11939 74.1861L0.0930176 79.186H104.478L102.482 74.5791L92.4724 51.4623L90.5304 46.9809L83.6302 53.8103L58.9287 5.57863L56.0759 -0.00244141H56.0725ZM55.8289 14.1385L65.9725 33.9397L63.3899 36.1325L55.7822 29.6829L48.1779 36.1325L45.0748 33.4939L55.8289 14.1385ZM55.7856 38.3781L63.3932 44.8277L69.0722 40.0062L79.7496 60.8609L81.825 64.9328L88.2715 58.5525L94.3443 72.5812H11.8748C16.6463 64.7049 21.4244 56.8287 26.1992 48.9558L32.8325 55.5209L34.9747 51.6703C37.247 47.5819 39.5226 43.4969 41.7915 39.4085L48.1779 44.8244L55.7856 38.3781Z" fill="white"/>
</svg>
